<?xml version="1.0" encoding="iso-8859-1"?>
<!-- Generator: Adobe Illustrator 19.0.0, SVG Export Plug-In . SVG Version: 6.00 Build 0)  -->
<svg version="1.1" id="Layer_1" xmlns="http://www.w3.org/2000/svg" xmlns:xlink="http://www.w3.org/1999/xlink" x="0px" y="0px"
	 viewBox="0 0 512 512" style="enable-background:new 0 0 512 512;" xml:space="preserve">
<g>
	<g>
		<path d="M236.535,108.8c24.635-31.165,62.76-51.2,105.477-51.2c15.703,0,30.78,2.715,44.8,7.688V0h-384v512h384V318.707
			c-14.021,4.973-29.097,7.693-44.8,7.693c-42.719,0-80.842-20.035-105.477-51.2H66.812v-38.4H215.3
			c-4.972-14.02-7.688-29.097-7.688-44.8s2.716-30.78,7.688-44.8H66.812v-38.4H236.535z M66.812,364.8h256v38.4h-256V364.8z"/>
	</g>
</g>
<g>
	<g>
		<path d="M342.012,172.8v38.4c10.587,0,19.2-8.613,19.2-19.2S352.599,172.8,342.012,172.8z"/>
	</g>
</g>
<g>
	<g>
		<path d="M422.066,244.904c10.065-15.18,15.946-33.365,15.946-52.902c0-52.934-43.066-96-96-96c-52.934,0-96,43.066-96,96
			s43.066,96,96,96c19.538,0,37.722-5.88,52.902-15.945l87.122,87.121l27.151-27.153L422.066,244.904z M342.012,249.6
			c-31.761,0-57.6-25.838-57.6-57.6c0-31.761,25.839-57.6,57.6-57.6c31.761,0,57.6,25.839,57.6,57.6S373.773,249.6,342.012,249.6z"
			/>
	</g>
</g>
<g>
</g>
<g>
</g>
<g>
</g>
<g>
</g>
<g>
</g>
<g>
</g>
<g>
</g>
<g>
</g>
<g>
</g>
<g>
</g>
<g>
</g>
<g>
</g>
<g>
</g>
<g>
</g>
<g>
</g>
</svg>
